<?xml version="1.0" standalone="no"?>
<!DOCTYPE svg PUBLIC "-//W3C//DTD SVG 20010904//EN"
 "http://www.w3.org/TR/2001/REC-SVG-20010904/DTD/svg10.dtd">
<svg version="1.0" xmlns="http://www.w3.org/2000/svg"
 width="320.000000pt" height="320.000000pt" viewBox="0 0 320.000000 320.000000"
 preserveAspectRatio="xMidYMid meet">
<metadata>
Created by potrace 1.14, written by Peter Selinger 2001-2017
</metadata>
<g transform="translate(0.000000,320.000000) scale(0.100000,-0.100000)"
fill="#000000" stroke="none">
<path d="M1400 3069 c-107 -38 -192 -142 -206 -254 -3 -27 -11 -58 -16 -68
-16 -31 -22 -68 -22 -137 0 -64 19 -119 60 -177 l16 -23 -55 0 c-31 0 -59 -5
-62 -11 -10 -15 -7 -16 53 -23 63 -7 97 -23 134 -63 61 -64 58 -15 58 -1025
-1 -992 1 -950 -53 -1014 -41 -48 -87 -67 -183 -73 -6 -1 -11 -8 -11 -16 0
-13 61 -15 489 -15 298 0 488 4 488 9 0 15 -18 23 -62 27 -78 8 -143 55 -172
125 -22 53 -22 1866 0 1919 29 69 101 121 174 125 75 4 82 33 10 37 l-49 3 29
43 c35 52 54 138 46 201 -9 66 -54 148 -107 193 -45 38 -144 82 -160 72 -5 -3
-9 -1 -9 5 0 10 -70 86 -102 110 -63 48 -198 62 -288 30z"/>
</g>
</svg>
